<svg xmlns="http://www.w3.org/2000/svg" xmlns:xlink="http://www.w3.org/1999/xlink" xmlns:lucid="lucid" width="545" height="677"><g transform="translate(0 0)" lucid:page-tab-id="0_0"><path d="M0 0h1361.37v790.67H0z" fill="#fff"/><path d="M230.2 230.2h80v40h-80z" stroke="#000" stroke-width="2" fill="#e5e5e5"/><use xlink:href="#a" transform="matrix(1,0,0,1,235.1998914577228,235.1998914577228) translate(2.075000000000003 18.15)"/><path d="M230.2 270.2h80v40h-80z" stroke="#000" stroke-width="2" fill="#fff"/><use xlink:href="#b" transform="matrix(1,0,0,1,235.1998914577228,275.1998914577228) translate(0 10.6640625)"/><use xlink:href="#c" transform="matrix(1,0,0,1,235.1998914577228,275.1998914577228) translate(16.002604166666668 10.6640625)"/><use xlink:href="#b" transform="matrix(1,0,0,1,235.1998914577228,275.1998914577228) translate(0 23.997395833333336)"/><use xlink:href="#d" transform="matrix(1,0,0,1,235.1998914577228,275.1998914577228) translate(16.002604166666668 23.997395833333336)"/><path d="M110.2 332.7v-82.5h118" stroke="#000" stroke-width="2" fill="none"/><path d="M110.2 347.96l-4.64-14.26h9.28z" stroke="#000" stroke-width="2"/><path d="M229.2 251.2h-1.03v-2h1.03z"/><path d="M430.2 330.7v-80.5h-118" stroke="#000" stroke-width="2" fill="none"/><path d="M430.2 345.96l-4.64-14.26h9.28z" stroke="#000" stroke-width="2"/><path d="M312.23 251.2h-1.03v-2h1.03z"/><path d="M350.2 350.2h160v42h-160z" stroke="#000" stroke-width="2" fill="#e5e5e5"/><use xlink:href="#e" transform="matrix(1,0,0,1,355.1998914577228,355.1998914577228) translate(33.599999999999994 20.4)"/><path d="M350.2 390.2h160v60h-160z" stroke="#000" stroke-width="2" fill="#fff"/><use xlink:href="#b" transform="matrix(1,0,0,1,355.1998914577228,395.1998914577228) translate(0 10.6640625)"/><use xlink:href="#f" transform="matrix(1,0,0,1,355.1998914577228,395.1998914577228) translate(16.002604166666668 10.6640625)"/><use xlink:href="#b" transform="matrix(1,0,0,1,355.1998914577228,395.1998914577228) translate(0 23.997395833333336)"/><use xlink:href="#g" transform="matrix(1,0,0,1,355.1998914577228,395.1998914577228) translate(16.002604166666668 23.997395833333336)"/><path d="M30.2 352.2h160v40h-160z" stroke="#000" stroke-width="2" fill="#e5e5e5"/><use xlink:href="#h" transform="matrix(1,0,0,1,35.1998914577228,357.1998914577228) translate(40.074999999999996 18.15)"/><path d="M30.2 392.2h160v60h-160z" stroke="#000" stroke-width="2" fill="#fff"/><use xlink:href="#b" transform="matrix(1,0,0,1,35.1998914577228,397.1998914577228) translate(0 10.6640625)"/><use xlink:href="#i" transform="matrix(1,0,0,1,35.1998914577228,397.1998914577228) translate(16.002604166666668 10.6640625)"/><use xlink:href="#b" transform="matrix(1,0,0,1,35.1998914577228,397.1998914577228) translate(0 23.997395833333336)"/><use xlink:href="#j" transform="matrix(1,0,0,1,35.1998914577228,397.1998914577228) translate(16.002604166666668 23.997395833333336)"/><use xlink:href="#b" transform="matrix(1,0,0,1,35.1998914577228,397.1998914577228) translate(0 37.33072916666667)"/><use xlink:href="#d" transform="matrix(1,0,0,1,35.1998914577228,397.1998914577228) translate(16.002604166666668 37.33072916666667)"/><path d="M348.2 110.2h-4.06m-8.1 0h-8.12m-8.12 0h-8.1m-8.12 0h-8.12m-8.1 0h-8.13m-8.1 0h-.93v7.2m0 8.1v8.12m0 8.1v8.13m0 8.1v8.12m0 8.12v8.1m0 8.1v8.13m0 8.1v4.07" stroke="#0c7cba" stroke-width="2" fill="none"/><path d="M349.2 111.2h-1.03v-2h1.03z" fill="#0c7cba"/><path d="M270.2 225.96l-4.64-14.26h9.28z" stroke="#0c7cba" stroke-width="2" fill="#0c7cba"/><path d="M350.2 30.2h120v160h-120z" stroke="#000" stroke-width="2" fill="#e5e5e5"/><use xlink:href="#k" transform="matrix(1,0,0,1,355.1998914577228,35.1998914577228) translate(37.025 14.4)"/><path d="M370.2 70.2h80v20h-80z" stroke="#000" stroke-width="2" fill="#fff"/><use xlink:href="#l" transform="matrix(1,0,0,1,375.1998914577228,75.1998914577228) translate(10.611111111111107 10.666666666666668)"/><path d="M370.2 90.2h80v20h-80z" stroke="#000" stroke-width="2" fill="#fff"/><use xlink:href="#l" transform="matrix(1,0,0,1,375.1998914577228,95.1998914577228) translate(10.611111111111107 10.666666666666668)"/><path d="M370.2 110.2h80v20h-80z" stroke="#000" stroke-width="2" fill="#fff"/><use xlink:href="#l" transform="matrix(1,0,0,1,375.1998914577228,115.1998914577228) translate(10.611111111111107 10.666666666666668)"/><path d="M370.2 130.2h80v20h-80z" stroke="#000" stroke-width="2" fill="#fff"/><use xlink:href="#l" transform="matrix(1,0,0,1,375.1998914577228,135.1998914577228) translate(10.611111111111107 10.666666666666668)"/><path d="M370.2 150.2h80v20h-80z" stroke="#000" stroke-width="2" fill="#fff"/><use xlink:href="#l" transform="matrix(1,0,0,1,375.1998914577228,155.1998914577228) translate(10.611111111111107 10.666666666666668)"/><path d="M312.2 290.2h4.06m8.1 0h8.12m8.12 0h8.1m8.12 0h8.12m8.1 0h8.13m8.1 0h8.12m8.1 0h4.7v-3.42m0-8.1v-8.13m0-8.1v-8.12m0-8.12v-8.1m0-8.1v-8.13m0-8.1v-4.07" stroke="#0c7cba" stroke-width="2" fill="none"/><path d="M312.23 291.2h-1.03v-2h1.03z" fill="#0c7cba"/><path d="M410.2 194.44l4.64 14.26h-9.28z" stroke="#0c7cba" stroke-width="2" fill="#0c7cba"/><path d="M30.2 470.2h160v161.2h-160z" stroke="#000" stroke-opacity="0" stroke-width="2" fill="#fff" fill-opacity="0"/><g><use xlink:href="#m" transform="matrix(1,0,0,1,35.1998914577228,475.19989145772286) translate(3.3711805555555543 14.4)"/><use xlink:href="#n" transform="matrix(1,0,0,1,35.1998914577228,475.19989145772286) translate(83.05000000000001 14.4)"/><use xlink:href="#o" transform="matrix(1,0,0,1,35.1998914577228,475.19989145772286) translate(5.099999999999994 36)"/><use xlink:href="#p" transform="matrix(1,0,0,1,35.1998914577228,475.19989145772286) translate(20.099999999999994 36)"/><use xlink:href="#q" transform="matrix(1,0,0,1,35.1998914577228,475.19989145772286) translate(135 36)"/><use xlink:href="#r" transform="matrix(1,0,0,1,35.1998914577228,475.19989145772286) translate(1.7060329861110972 57.6)"/><use xlink:href="#s" transform="matrix(1,0,0,1,35.1998914577228,475.19989145772286) translate(31.706032986111097 57.6)"/><use xlink:href="#t" transform="matrix(1,0,0,1,35.1998914577228,475.19989145772286) translate(102.05 57.6)"/><use xlink:href="#u" transform="matrix(1,0,0,1,35.1998914577228,475.19989145772286) translate(10.050000000000011 79.20000000000002)"/><use xlink:href="#v" transform="matrix(1,0,0,1,35.1998914577228,475.19989145772286) translate(45.05000000000001 79.20000000000002)"/><use xlink:href="#w" transform="matrix(1,0,0,1,35.1998914577228,475.19989145772286) translate(83.00000000000001 79.20000000000002)"/><use xlink:href="#o" transform="matrix(1,0,0,1,35.1998914577228,475.19989145772286) translate(14.099999999999994 100.80000000000001)"/><use xlink:href="#x" transform="matrix(1,0,0,1,35.1998914577228,475.19989145772286) translate(29.099999999999994 100.80000000000001)"/><use xlink:href="#y" transform="matrix(1,0,0,1,35.1998914577228,475.19989145772286) translate(66.05 100.80000000000001)"/><use xlink:href="#z" transform="matrix(1,0,0,1,35.1998914577228,475.19989145772286) translate(86.05 100.80000000000001)"/><use xlink:href="#r" transform="matrix(1,0,0,1,35.1998914577228,475.19989145772286) translate(15.199999999999989 122.4)"/><use xlink:href="#A" transform="matrix(1,0,0,1,35.1998914577228,475.19989145772286) translate(45.19999999999999 122.4)"/><use xlink:href="#B" transform="matrix(1,0,0,1,35.1998914577228,475.19989145772286) translate(114.04999999999998 122.4)"/><use xlink:href="#C" transform="matrix(1,0,0,1,35.1998914577228,475.19989145772286) translate(5.099999999999994 144)"/><use xlink:href="#r" transform="matrix(1,0,0,1,35.1998914577228,475.19989145772286) translate(35.099999999999994 144)"/><use xlink:href="#D" transform="matrix(1,0,0,1,35.1998914577228,475.19989145772286) translate(65.1 144)"/></g><path d="M350.2 470.2h160V653h-160z" stroke="#000" stroke-opacity="0" stroke-width="2" fill="#fff" fill-opacity="0"/><g><use xlink:href="#E" transform="matrix(1,0,0,1,355.1998914577228,475.19989145772286) translate(0 14.4)"/><use xlink:href="#F" transform="matrix(1,0,0,1,355.1998914577228,475.19989145772286) translate(0 36)"/><use xlink:href="#G" transform="matrix(1,0,0,1,355.1998914577228,475.19989145772286) translate(71.95 36)"/><use xlink:href="#p" transform="matrix(1,0,0,1,355.1998914577228,475.19989145772286) translate(0 57.6)"/><use xlink:href="#q" transform="matrix(1,0,0,1,355.1998914577228,475.19989145772286) translate(114.9 57.6)"/><use xlink:href="#r" transform="matrix(1,0,0,1,355.1998914577228,475.19989145772286) translate(0 79.20000000000002)"/><use xlink:href="#s" transform="matrix(1,0,0,1,355.1998914577228,475.19989145772286) translate(30 79.20000000000002)"/><use xlink:href="#t" transform="matrix(1,0,0,1,355.1998914577228,475.19989145772286) translate(100.3439670138889 79.20000000000002)"/><use xlink:href="#u" transform="matrix(1,0,0,1,355.1998914577228,475.19989145772286) translate(0 100.80000000000001)"/><use xlink:href="#v" transform="matrix(1,0,0,1,355.1998914577228,475.19989145772286) translate(35 100.80000000000001)"/><use xlink:href="#w" transform="matrix(1,0,0,1,355.1998914577228,475.19989145772286) translate(72.95 100.80000000000001)"/><use xlink:href="#o" transform="matrix(1,0,0,1,355.1998914577228,475.19989145772286) translate(0 122.4)"/><use xlink:href="#x" transform="matrix(1,0,0,1,355.1998914577228,475.19989145772286) translate(15 122.4)"/><use xlink:href="#y" transform="matrix(1,0,0,1,355.1998914577228,475.19989145772286) translate(51.95 122.4)"/><use xlink:href="#H" transform="matrix(1,0,0,1,355.1998914577228,475.19989145772286) translate(71.95 122.4)"/><use xlink:href="#I" transform="matrix(1,0,0,1,355.1998914577228,475.19989145772286) translate(0 144)"/><use xlink:href="#J" transform="matrix(1,0,0,1,355.1998914577228,475.19989145772286) translate(20.95 144)"/><use xlink:href="#K" transform="matrix(1,0,0,1,355.1998914577228,475.19989145772286) translate(69.85 144)"/><use xlink:href="#L" transform="matrix(1,0,0,1,355.1998914577228,475.19989145772286) translate(0 165.6)"/></g><path d="M270.2 649.2v-3.92m0-7.84v-7.85m0-7.85v-7.84m0-7.83v-7.84m0-7.85v-7.84m0-7.84v-7.84m0-7.84v-7.85m0-7.84v-7.84m0-7.85v-7.84m0-7.84v-7.84m0-7.84v-7.84m0-7.85v-7.85m0-7.84v-7.83m0-7.84v-7.85m0-7.84v-7.84m0-7.84v-7.84m0-7.85v-7.84m0-7.84v-7.85m0-7.84v-7.84m0-7.84v-3.92M270.2 649.17v1.03M270.2 351.23v-1.03" stroke="#000" stroke-width="2" fill="none"/><defs><path d="M30-248c87 1 191-15 191 75 0 78-77 80-158 76V0H30v-248zm33 125c57 0 124 11 124-50 0-59-68-47-124-48v98" id="M"/><path d="M114-163C36-179 61-72 57 0H25l-1-190h30c1 12-1 29 2 39 6-27 23-49 58-41v29" id="N"/><path d="M100-194c62-1 85 37 85 99 1 63-27 99-86 99S16-35 15-95c0-66 28-99 85-99zM99-20c44 1 53-31 53-75 0-43-8-75-51-75s-53 32-53 75 10 74 51 75" id="O"/><path d="M210-169c-67 3-38 105-44 169h-31v-121c0-29-5-50-35-48C34-165 62-65 56 0H25l-1-190h30c1 10-1 24 2 32 10-44 99-50 107 0 11-21 27-35 58-36 85-2 47 119 55 194h-31v-121c0-29-5-49-35-48" id="P"/><path d="M24-231v-30h32v30H24zM24 0v-190h32V0H24" id="Q"/><path d="M135-143c-3-34-86-38-87 0 15 53 115 12 119 90S17 21 10-45l28-5c4 36 97 45 98 0-10-56-113-15-118-90-4-57 82-63 122-42 12 7 21 19 24 35" id="R"/><path d="M100-194c63 0 86 42 84 106H49c0 40 14 67 53 68 26 1 43-12 49-29l28 8c-11 28-37 45-77 45C44 4 14-33 15-96c1-61 26-98 85-98zm52 81c6-60-76-77-97-28-3 7-6 17-6 28h103" id="S"/><g id="a"><use transform="matrix(0.05,0,0,0.05,0,0)" xlink:href="#M"/><use transform="matrix(0.05,0,0,0.05,12,0)" xlink:href="#N"/><use transform="matrix(0.05,0,0,0.05,17.95,0)" xlink:href="#O"/><use transform="matrix(0.05,0,0,0.05,27.950000000000003,0)" xlink:href="#P"/><use transform="matrix(0.05,0,0,0.05,42.9,0)" xlink:href="#Q"/><use transform="matrix(0.05,0,0,0.05,46.85,0)" xlink:href="#R"/><use transform="matrix(0.05,0,0,0.05,55.85,0)" xlink:href="#S"/></g><path d="M334-464v-160h560v160H334" id="T"/><use transform="matrix(0.006510416666666667,0,0,0.006510416666666667,0,0)" xlink:href="#T" id="b"/><path d="M614-1226c-167 1-283 53-283 213 0 183 186 193 334 234 230 63 463 120 463 409 0 286-219 387-518 390C309 23 131-98 79-338l185-37c34 165 149 248 351 246 184-2 324-58 324-238 0-203-207-221-372-266-210-57-422-111-422-377 0-267 201-356 470-360 279-5 430 101 480 324l-188 33c-28-141-121-215-293-213" id="U"/><path d="M682 16c-209 0-323-80-324-285v-671H190v-142h170l58-282h120v282h432v142H538v652c2 114 60 155 182 155 106 0 209-16 297-34v137C921-4 806 16 682 16" id="V"/><path d="M1000-272c3 95 12 159 101 161 21 0 41-3 59-7V-6c-44 10-86 16-139 16-141 2-191-84-197-217h-6C748-76 648 20 446 20c-207 0-318-120-318-322 0-266 194-348 454-354l236-4c12-191-40-305-222-305-140 0-220 47-232 172l-188-17c33-204 181-292 423-292 255 0 401 118 401 364v466zm-683-27c0 109 63 184 175 182 166-3 259-96 306-217 24-65 20-120 20-200-232 7-501-28-501 235" id="W"/><path d="M528 20c-247 0-343-132-343-381v-721h180v686c-4 177 45 284 224 277 194-8 279-136 279-336v-627h181c3 360-6 732 6 1082H885c-4-54-7-126-8-185h-3C809-64 714 20 528 20" id="X"/><path d="M873-819c-18-114-119-146-250-146-163 0-245 50-245 151 0 151 170 148 294 185 182 54 388 94 388 320 0 240-189 325-439 329-245 4-410-69-454-268l159-31c24 133 136 168 295 165 144-2 270-31 270-171 0-164-195-160-331-202-167-52-350-87-350-299 0-218 173-315 413-313 220 2 373 77 412 260" id="Y"/><g id="c"><use transform="matrix(0.006510416666666667,0,0,0.006510416666666667,0,0)" xlink:href="#U"/><use transform="matrix(0.006510416666666667,0,0,0.006510416666666667,8.001302083333334,0)" xlink:href="#V"/><use transform="matrix(0.006510416666666667,0,0,0.006510416666666667,16.002604166666668,0)" xlink:href="#W"/><use transform="matrix(0.006510416666666667,0,0,0.006510416666666667,24.00390625,0)" xlink:href="#V"/><use transform="matrix(0.006510416666666667,0,0,0.006510416666666667,32.005208333333336,0)" xlink:href="#X"/><use transform="matrix(0.006510416666666667,0,0,0.006510416666666667,40.00651041666667,0)" xlink:href="#Y"/></g><path d="M1121-976c0 225-142 341-344 379L1177 0H957L591-575H353V0H162v-1349h482c281 3 477 100 477 373zM633-726c181-1 296-73 296-247 0-149-101-223-304-223H353v470h280" id="Z"/><path d="M617-1102c355 0 481 238 477 599H322c5 222 84 388 301 388 144 0 244-59 284-166l158 45C1002-72 854 20 623 20c-342 0-490-220-490-568 0-346 151-554 484-554zm291 461c-18-192-90-328-289-328-194 0-287 128-295 328h584" id="aa"/><path d="M736-142h380V0H134v-142h422v-1200H267v-142h469v1342" id="ab"/><g id="d"><use transform="matrix(0.006510416666666667,0,0,0.006510416666666667,0,0)" xlink:href="#Z"/><use transform="matrix(0.006510416666666667,0,0,0.006510416666666667,8.001302083333334,0)" xlink:href="#aa"/><use transform="matrix(0.006510416666666667,0,0,0.006510416666666667,16.002604166666668,0)" xlink:href="#Y"/><use transform="matrix(0.006510416666666667,0,0,0.006510416666666667,24.00390625,0)" xlink:href="#X"/><use transform="matrix(0.006510416666666667,0,0,0.006510416666666667,32.005208333333336,0)" xlink:href="#ab"/><use transform="matrix(0.006510416666666667,0,0,0.006510416666666667,40.00651041666667,0)" xlink:href="#V"/></g><path d="M212-179c-10-28-35-45-73-45-59 0-87 40-87 99 0 60 29 101 89 101 43 0 62-24 78-52l27 14C228-24 195 4 139 4 59 4 22-46 18-125c-6-104 99-153 187-111 19 9 31 26 39 46" id="ac"/><path d="M115-194c55 1 70 41 70 98S169 2 115 4C84 4 66-9 55-30l1 105H24l-1-265h31l2 30c10-21 28-34 59-34zm-8 174c40 0 45-34 45-75s-6-73-45-74c-42 0-51 32-51 76 0 43 10 73 51 73" id="ad"/><path d="M24 0v-261h32V0H24" id="ae"/><path d="M59-47c-2 24 18 29 38 22v24C64 9 27 4 27-40v-127H5v-23h24l9-43h21v43h35v23H59v120" id="af"/><g id="e"><use transform="matrix(0.05,0,0,0.05,0,0)" xlink:href="#ac"/><use transform="matrix(0.05,0,0,0.05,12.950000000000001,0)" xlink:href="#O"/><use transform="matrix(0.05,0,0,0.05,22.950000000000003,0)" xlink:href="#P"/><use transform="matrix(0.05,0,0,0.05,37.900000000000006,0)" xlink:href="#ad"/><use transform="matrix(0.05,0,0,0.05,47.900000000000006,0)" xlink:href="#ae"/><use transform="matrix(0.05,0,0,0.05,51.85,0)" xlink:href="#S"/><use transform="matrix(0.05,0,0,0.05,61.85,0)" xlink:href="#af"/><use transform="matrix(0.05,0,0,0.05,66.85000000000001,0)" xlink:href="#S"/><use transform="matrix(0.05,0,0,0.05,76.85000000000001,0)" xlink:href="#N"/></g><path d="M615-1102c343 0 484 203 482 560-1 347-147 562-488 562-336 0-475-219-479-562-4-349 156-560 485-560zm-8 989c240 0 301-180 301-429 0-245-55-427-290-427-236 0-299 181-299 427 0 243 61 429 288 429" id="ag"/><path d="M715 0H502L69-1082h202c94 253 197 500 285 758 19 57 36 126 52 183 96-335 234-626 350-941h201" id="ah"/><path d="M891-1484c-201 251-362 514-362 954 0 441 161 704 362 955H701C500 176 342-90 342-532c0-440 159-704 359-952h190" id="ai"/><path d="M839-1102c70 0 148 7 206 17v167c-112-18-268-36-363 15-129 69-208 203-208 395V0H294c-10-367 32-789-52-1082h171c21 75 41 161 48 250h5c67-152 152-270 373-270" id="aj"/><path d="M528-1484c201 248 357 511 357 952 0 442-156 709-357 957H336C537 174 700-89 700-530c0-440-163-703-364-954h192" id="ak"/><g id="f"><use transform="matrix(0.006510416666666667,0,0,0.006510416666666667,0,0)" xlink:href="#Z"/><use transform="matrix(0.006510416666666667,0,0,0.006510416666666667,8.001302083333334,0)" xlink:href="#aa"/><use transform="matrix(0.006510416666666667,0,0,0.006510416666666667,16.002604166666668,0)" xlink:href="#Y"/><use transform="matrix(0.006510416666666667,0,0,0.006510416666666667,24.00390625,0)" xlink:href="#ag"/><use transform="matrix(0.006510416666666667,0,0,0.006510416666666667,32.005208333333336,0)" xlink:href="#ab"/><use transform="matrix(0.006510416666666667,0,0,0.006510416666666667,40.00651041666667,0)" xlink:href="#ah"/><use transform="matrix(0.006510416666666667,0,0,0.006510416666666667,48.00781250000001,0)" xlink:href="#aa"/><use transform="matrix(0.006510416666666667,0,0,0.006510416666666667,56.00911458333335,0)" xlink:href="#ai"/><use transform="matrix(0.006510416666666667,0,0,0.006510416666666667,64.01041666666667,0)" xlink:href="#aj"/><use transform="matrix(0.006510416666666667,0,0,0.006510416666666667,72.01171875,0)" xlink:href="#aa"/><use transform="matrix(0.006510416666666667,0,0,0.006510416666666667,80.01302083333333,0)" xlink:href="#Y"/><use transform="matrix(0.006510416666666667,0,0,0.006510416666666667,88.01432291666666,0)" xlink:href="#X"/><use transform="matrix(0.006510416666666667,0,0,0.006510416666666667,96.01562499999999,0)" xlink:href="#ab"/><use transform="matrix(0.006510416666666667,0,0,0.006510416666666667,104.01692708333331,0)" xlink:href="#V"/><use transform="matrix(0.006510416666666667,0,0,0.006510416666666667,112.01822916666664,0)" xlink:href="#ak"/></g><path d="M390 276c167 0 266-82 266-251v-965H249v-142h587V28c-4 270-165 397-431 397-107 0-208-16-288-43V242c80 18 173 34 273 34zm246-1568v-192h200v192H636" id="al"/><path d="M631 20c-350 0-501-215-501-562 0-355 162-560 502-560 250 0 399 118 446 323l-192 14c-23-124-109-196-262-196-242 0-305 171-305 415 1 245 61 427 304 427 151 0 248-77 267-215l190 12C1039-107 883 20 631 20" id="am"/><g id="g"><use transform="matrix(0.006510416666666667,0,0,0.006510416666666667,0,0)" xlink:href="#Z"/><use transform="matrix(0.006510416666666667,0,0,0.006510416666666667,8.001302083333334,0)" xlink:href="#aa"/><use transform="matrix(0.006510416666666667,0,0,0.006510416666666667,16.002604166666668,0)" xlink:href="#al"/><use transform="matrix(0.006510416666666667,0,0,0.006510416666666667,24.00390625,0)" xlink:href="#aa"/><use transform="matrix(0.006510416666666667,0,0,0.006510416666666667,32.005208333333336,0)" xlink:href="#am"/><use transform="matrix(0.006510416666666667,0,0,0.006510416666666667,40.00651041666667,0)" xlink:href="#V"/><use transform="matrix(0.006510416666666667,0,0,0.006510416666666667,48.00781250000001,0)" xlink:href="#ai"/><use transform="matrix(0.006510416666666667,0,0,0.006510416666666667,56.00911458333335,0)" xlink:href="#ak"/></g><path d="M30-248c118-7 216 8 213 122C240-48 200 0 122 0H30v-248zM63-27c89 8 146-16 146-99s-60-101-146-95v194" id="an"/><path d="M101-234c-31-9-42 10-38 44h38v23H63V0H32v-167H5v-23h27c-7-52 17-82 69-68v24" id="ao"/><path d="M85-194c31 0 48 13 60 33l-1-100h32l1 261h-30c-2-10 0-23-3-31C134-8 116 4 85 4 32 4 16-35 15-94c0-66 23-100 70-100zm9 24c-40 0-46 34-46 75 0 40 6 74 45 74 42 0 51-32 51-76 0-42-9-74-50-73" id="ap"/><g id="h"><use transform="matrix(0.05,0,0,0.05,0,0)" xlink:href="#an"/><use transform="matrix(0.05,0,0,0.05,12.950000000000001,0)" xlink:href="#S"/><use transform="matrix(0.05,0,0,0.05,22.950000000000003,0)" xlink:href="#ao"/><use transform="matrix(0.05,0,0,0.05,27.950000000000003,0)" xlink:href="#S"/><use transform="matrix(0.05,0,0,0.05,37.95,0)" xlink:href="#N"/><use transform="matrix(0.05,0,0,0.05,43.900000000000006,0)" xlink:href="#N"/><use transform="matrix(0.05,0,0,0.05,49.85000000000001,0)" xlink:href="#S"/><use transform="matrix(0.05,0,0,0.05,59.85,0)" xlink:href="#ap"/></g><path d="M202-1349h823v156H709v1037h316V0H202v-156h316v-1037H202v-156" id="aq"/><path d="M473-1349c438-1 655 221 652 661C1122-268 945-8 532 0H162v-1349h311zm42 1193c308-4 416-205 418-532 2-330-131-509-459-505H353v1037h162" id="ar"/><path d="M706-1102c241 0 344 136 343 381V0H868v-695c1-168-57-273-220-268-190 6-283 138-283 336V0H185c-3-360 6-732-6-1082h170c4 54 7 126 8 185h3c63-121 164-204 346-205" id="as"/><g id="i"><use transform="matrix(0.006510416666666667,0,0,0.006510416666666667,0,0)" xlink:href="#aq"/><use transform="matrix(0.006510416666666667,0,0,0.006510416666666667,8.001302083333334,0)" xlink:href="#Y"/><use transform="matrix(0.006510416666666667,0,0,0.006510416666666667,16.002604166666668,0)" xlink:href="#ar"/><use transform="matrix(0.006510416666666667,0,0,0.006510416666666667,24.00390625,0)" xlink:href="#ag"/><use transform="matrix(0.006510416666666667,0,0,0.006510416666666667,32.005208333333336,0)" xlink:href="#as"/><use transform="matrix(0.006510416666666667,0,0,0.006510416666666667,40.00651041666667,0)" xlink:href="#aa"/></g><g id="j"><use transform="matrix(0.006510416666666667,0,0,0.006510416666666667,0,0)" xlink:href="#aq"/><use transform="matrix(0.006510416666666667,0,0,0.006510416666666667,8.001302083333334,0)" xlink:href="#Y"/><use transform="matrix(0.006510416666666667,0,0,0.006510416666666667,16.002604166666668,0)" xlink:href="#U"/><use transform="matrix(0.006510416666666667,0,0,0.006510416666666667,24.00390625,0)" xlink:href="#X"/><use transform="matrix(0.006510416666666667,0,0,0.006510416666666667,32.005208333333336,0)" xlink:href="#am"/><use transform="matrix(0.006510416666666667,0,0,0.006510416666666667,40.00651041666667,0)" xlink:href="#am"/><use transform="matrix(0.006510416666666667,0,0,0.006510416666666667,48.00781250000001,0)" xlink:href="#aa"/><use transform="matrix(0.006510416666666667,0,0,0.006510416666666667,56.00911458333335,0)" xlink:href="#Y"/><use transform="matrix(0.006510416666666667,0,0,0.006510416666666667,64.01041666666667,0)" xlink:href="#Y"/></g><g id="k"><use transform="matrix(0.05,0,0,0.05,0,0)" xlink:href="#M"/><use transform="matrix(0.05,0,0,0.05,12,0)" xlink:href="#O"/><use transform="matrix(0.05,0,0,0.05,22,0)" xlink:href="#O"/><use transform="matrix(0.05,0,0,0.05,32,0)" xlink:href="#ae"/></g><g id="l"><use transform="matrix(0.03703703703703704,0,0,0.03703703703703704,0,0)" xlink:href="#M"/><use transform="matrix(0.03703703703703704,0,0,0.03703703703703704,8.88888888888889,0)" xlink:href="#N"/><use transform="matrix(0.03703703703703704,0,0,0.03703703703703704,13.296296296296298,0)" xlink:href="#O"/><use transform="matrix(0.03703703703703704,0,0,0.03703703703703704,20.703703703703706,0)" xlink:href="#P"/><use transform="matrix(0.03703703703703704,0,0,0.03703703703703704,31.777777777777782,0)" xlink:href="#Q"/><use transform="matrix(0.03703703703703704,0,0,0.03703703703703704,34.70370370370371,0)" xlink:href="#R"/><use transform="matrix(0.03703703703703704,0,0,0.03703703703703704,41.37037037037038,0)" xlink:href="#S"/></g><path d="M839-1335c-182-6-269 67-259 253h491v142H580V0H400v-940H138v-142h262c-15-293 132-408 418-402 94 2 200 7 281 21v145c-75-10-177-14-260-17" id="at"/><path d="M865-914c-3-187-2-380-2-570h180v1261c0 76 1 155 6 223H877c-8-49-9-116-10-174h-5C801-44 708 26 530 26c-135 0-234-46-297-139s-95-232-95-419c0-377 131-566 392-566 176 0 271 63 335 184zm-286-51c-222 0-255 197-255 427 0 229 31 425 253 425 237 0 286-195 286-441 0-238-52-411-284-411" id="au"/><g id="m"><use transform="matrix(0.007595486111111112,0,0,0.007595486111111112,0,0)" xlink:href="#ar"/><use transform="matrix(0.007595486111111112,0,0,0.007595486111111112,9.334852430555557,0)" xlink:href="#aa"/><use transform="matrix(0.007595486111111112,0,0,0.007595486111111112,18.669704861111114,0)" xlink:href="#at"/><use transform="matrix(0.007595486111111112,0,0,0.007595486111111112,28.00455729166667,0)" xlink:href="#aa"/><use transform="matrix(0.007595486111111112,0,0,0.007595486111111112,37.33940972222223,0)" xlink:href="#aj"/><use transform="matrix(0.007595486111111112,0,0,0.007595486111111112,46.674262152777786,0)" xlink:href="#aj"/><use transform="matrix(0.007595486111111112,0,0,0.007595486111111112,56.00911458333334,0)" xlink:href="#aa"/><use transform="matrix(0.007595486111111112,0,0,0.007595486111111112,65.3439670138889,0)" xlink:href="#au"/></g><path d="M96-169c-40 0-48 33-48 73s9 75 48 75c24 0 41-14 43-38l32 2c-6 37-31 61-74 61-59 0-76-41-82-99-10-93 101-131 147-64 4 7 5 14 7 22l-32 3c-4-21-16-35-41-35" id="av"/><path d="M117-194c89-4 53 116 60 194h-32v-121c0-31-8-49-39-48C34-167 62-67 57 0H25l-1-190h30c1 10-1 24 2 32 11-22 29-35 61-36" id="aw"/><path d="M141-36C126-15 110 5 73 4 37 3 15-17 15-53c-1-64 63-63 125-63 3-35-9-54-41-54-24 1-41 7-42 31l-33-3c5-37 33-52 76-52 45 0 72 20 72 64v82c-1 20 7 32 28 27v20c-31 9-61-2-59-35zM48-53c0 20 12 33 32 33 41-3 63-29 60-74-43 2-92-5-92 41" id="ax"/><g id="n"><use transform="matrix(0.05,0,0,0.05,0,0)" xlink:href="#av"/><use transform="matrix(0.05,0,0,0.05,9,0)" xlink:href="#O"/><use transform="matrix(0.05,0,0,0.05,19,0)" xlink:href="#aw"/><use transform="matrix(0.05,0,0,0.05,29,0)" xlink:href="#af"/><use transform="matrix(0.05,0,0,0.05,34,0)" xlink:href="#ax"/><use transform="matrix(0.05,0,0,0.05,44,0)" xlink:href="#Q"/><use transform="matrix(0.05,0,0,0.05,47.95,0)" xlink:href="#aw"/><use transform="matrix(0.05,0,0,0.05,57.95,0)" xlink:href="#R"/></g><use transform="matrix(0.05,0,0,0.05,0,0)" xlink:href="#ax" id="o"/><path d="M55-144c13 50 104 24 104 88C159 21 15 23 1-39l26-10c6 40 102 42 102-4-13-50-104-23-104-87 0-71 143-71 148-8l-29 4c-5-35-85-37-89 0" id="ay"/><path d="M30-147c31-64 166-65 159 27C183-49 158 1 86 4 9 8 1-88 30-147zM88-20c53 0 68-48 68-100 0-31-11-51-44-50-52 1-68 46-68 97 0 32 13 53 44 53" id="az"/><path d="M76-167L44 0H12l33-167H18l4-23h27c3-47 25-81 82-69l-4 24c-35-8-44 15-46 45h37l-5 23H76" id="aA"/><path d="M51-54c-9 22 5 41 31 30L79-1C43 14 10-4 19-52l22-115H19l5-23h22l19-43h21l-9 43h35l-4 23H73" id="aB"/><path d="M66-151c12-25 30-51 66-40l-6 26C45-176 58-65 38 0H6l36-190h30" id="aC"/><path d="M111-194c62-3 86 47 72 106H45c-7 38 6 69 45 68 27-1 43-14 53-32l24 11C152-15 129 4 87 4 38 3 12-23 12-71c0-70 32-119 99-123zm44 81c14-66-71-72-95-28-4 8-8 17-11 28h106" id="aD"/><path d="M67-158c22-48 132-52 116 29L158 0h-32l25-140c3-38-53-32-70-12C52-117 51-52 38 0H6l36-190h30" id="aE"/><path d="M44-68c0 29 11 47 38 47 30 0 42-19 51-41l28 9C148-21 126 4 82 4 31 4 10-29 12-85c3-77 74-140 146-93 12 8 15 23 18 40l-31 5c-1-22-13-36-36-36-52 0-65 49-65 101" id="aF"/><g id="p"><use transform="matrix(0.05,0,0,0.05,0,0)" xlink:href="#ay"/><use transform="matrix(0.05,0,0,0.05,9,0)" xlink:href="#az"/><use transform="matrix(0.05,0,0,0.05,19,0)" xlink:href="#aA"/><use transform="matrix(0.05,0,0,0.05,24,0)" xlink:href="#aB"/><use transform="matrix(0.05,0,0,0.05,34,0)" xlink:href="#aC"/><use transform="matrix(0.05,0,0,0.05,39.95,0)" xlink:href="#aD"/><use transform="matrix(0.05,0,0,0.05,49.95,0)" xlink:href="#aA"/><use transform="matrix(0.05,0,0,0.05,54.95,0)" xlink:href="#aD"/><use transform="matrix(0.05,0,0,0.05,64.95,0)" xlink:href="#aC"/><use transform="matrix(0.05,0,0,0.05,70.9,0)" xlink:href="#aD"/><use transform="matrix(0.05,0,0,0.05,80.9,0)" xlink:href="#aE"/><use transform="matrix(0.05,0,0,0.05,90.9,0)" xlink:href="#aF"/><use transform="matrix(0.05,0,0,0.05,99.9,0)" xlink:href="#aD"/></g><g id="q"><use transform="matrix(0.05,0,0,0.05,0,0)" xlink:href="#af"/><use transform="matrix(0.05,0,0,0.05,5,0)" xlink:href="#O"/></g><path d="M106-169C34-169 62-67 57 0H25v-261h32l-1 103c12-21 28-36 61-36 89 0 53 116 60 194h-32v-121c2-32-8-49-39-48" id="aG"/><g id="r"><use transform="matrix(0.05,0,0,0.05,0,0)" xlink:href="#af"/><use transform="matrix(0.05,0,0,0.05,5,0)" xlink:href="#aG"/><use transform="matrix(0.05,0,0,0.05,15,0)" xlink:href="#S"/></g><path d="M698-1104c312 3 392 244 392 558 0 315-82 566-392 566-169 0-277-65-331-184h-5c8 188 2 394 4 589H185V-858c0-76-1-156-6-224h175c6 52 9 120 10 178h4c58-122 150-202 330-200zm-49 991c225 0 255-203 255-433 0-225-32-419-253-419-236 0-285 192-285 441 0 237 53 411 283 411" id="aH"/><path d="M904-1102c199 0 220 177 220 381V0H956v-686c-3-114 0-215-60-264-70-33-125-4-158 71-26 56-39 140-39 252V0H531v-686c-3-114-1-215-61-264-78-41-136 24-157 84-24 69-39 159-39 259V0H105c-3-360 6-732-6-1082h149c6 50 3 123 8 175 36-100 83-195 216-195 135 0 166 79 196 196 42-105 93-196 236-196" id="aI"/><path d="M745-142h380V0H143v-142h422v-798H246v-142h499v940zM545-1292v-192h200v192H545" id="aJ"/><g id="s"><use transform="matrix(0.007595486111111112,0,0,0.007595486111111112,0,0)" xlink:href="#aH"/><use transform="matrix(0.007595486111111112,0,0,0.007595486111111112,9.334852430555557,0)" xlink:href="#aj"/><use transform="matrix(0.007595486111111112,0,0,0.007595486111111112,18.669704861111114,0)" xlink:href="#ag"/><use transform="matrix(0.007595486111111112,0,0,0.007595486111111112,28.00455729166667,0)" xlink:href="#aI"/><use transform="matrix(0.007595486111111112,0,0,0.007595486111111112,37.33940972222223,0)" xlink:href="#aJ"/><use transform="matrix(0.007595486111111112,0,0,0.007595486111111112,46.674262152777786,0)" xlink:href="#Y"/><use transform="matrix(0.007595486111111112,0,0,0.007595486111111112,56.00911458333334,0)" xlink:href="#aa"/></g><path d="M115-194c53 0 69 39 70 98 0 66-23 100-70 100C84 3 66-7 56-30L54 0H23l1-261h32v101c10-23 28-34 59-34zm-8 174c40 0 45-34 45-75 0-40-5-75-45-74-42 0-51 32-51 76 0 43 10 73 51 73" id="aK"/><path d="M24-231v-30h32v30H24zM-9 49c24 4 33-6 33-30v-209h32V24c2 40-23 58-65 49V49" id="aL"/><g id="t"><use transform="matrix(0.05,0,0,0.05,0,0)" xlink:href="#O"/><use transform="matrix(0.05,0,0,0.05,10,0)" xlink:href="#aK"/><use transform="matrix(0.05,0,0,0.05,20,0)" xlink:href="#aL"/><use transform="matrix(0.05,0,0,0.05,23.95,0)" xlink:href="#S"/><use transform="matrix(0.05,0,0,0.05,33.95,0)" xlink:href="#av"/><use transform="matrix(0.05,0,0,0.05,42.95,0)" xlink:href="#af"/></g><g id="u"><use transform="matrix(0.05,0,0,0.05,0,0)" xlink:href="#ax"/><use transform="matrix(0.05,0,0,0.05,10,0)" xlink:href="#aw"/><use transform="matrix(0.05,0,0,0.05,20,0)" xlink:href="#ap"/></g><path d="M179-190L93 31C79 59 56 82 12 73V49c39 6 53-20 64-50L1-190h34L92-34l54-156h33" id="aM"/><g id="v"><use transform="matrix(0.05,0,0,0.05,0,0)" xlink:href="#O"/><use transform="matrix(0.05,0,0,0.05,10,0)" xlink:href="#aw"/><use transform="matrix(0.05,0,0,0.05,20,0)" xlink:href="#ae"/><use transform="matrix(0.05,0,0,0.05,23.95,0)" xlink:href="#aM"/></g><path d="M141 0L90-78 38 0H4l68-98-65-92h35l48 74 47-74h35l-64 92 68 98h-35" id="aN"/><g id="w"><use transform="matrix(0.05,0,0,0.05,0,0)" xlink:href="#S"/><use transform="matrix(0.05,0,0,0.05,10,0)" xlink:href="#aN"/><use transform="matrix(0.05,0,0,0.05,19,0)" xlink:href="#ad"/><use transform="matrix(0.05,0,0,0.05,29,0)" xlink:href="#O"/><use transform="matrix(0.05,0,0,0.05,39,0)" xlink:href="#R"/><use transform="matrix(0.05,0,0,0.05,48,0)" xlink:href="#S"/><use transform="matrix(0.05,0,0,0.05,58,0)" xlink:href="#R"/></g><path d="M206 0h-36l-40-164L89 0H53L-1-190h32L70-26l43-164h34l41 164 42-164h31" id="aO"/><g id="x"><use transform="matrix(0.05,0,0,0.05,0,0)" xlink:href="#aO"/><use transform="matrix(0.05,0,0,0.05,12.950000000000001,0)" xlink:href="#ax"/><use transform="matrix(0.05,0,0,0.05,22.950000000000003,0)" xlink:href="#aM"/></g><g id="y"><use transform="matrix(0.05,0,0,0.05,0,0)" xlink:href="#af"/><use transform="matrix(0.05,0,0,0.05,5,0)" xlink:href="#O"/></g><path d="M108 0H70L1-190h34L89-25l56-165h34" id="aP"/><g id="z"><use transform="matrix(0.05,0,0,0.05,0,0)" xlink:href="#O"/><use transform="matrix(0.05,0,0,0.05,10,0)" xlink:href="#aK"/><use transform="matrix(0.05,0,0,0.05,20,0)" xlink:href="#R"/><use transform="matrix(0.05,0,0,0.05,29,0)" xlink:href="#S"/><use transform="matrix(0.05,0,0,0.05,39,0)" xlink:href="#N"/><use transform="matrix(0.05,0,0,0.05,44.95,0)" xlink:href="#aP"/><use transform="matrix(0.05,0,0,0.05,53.95,0)" xlink:href="#S"/></g><g id="A"><use transform="matrix(0.05,0,0,0.05,0,0)" xlink:href="#ad"/><use transform="matrix(0.05,0,0,0.05,10,0)" xlink:href="#N"/><use transform="matrix(0.05,0,0,0.05,15.949999999999998,0)" xlink:href="#O"/><use transform="matrix(0.05,0,0,0.05,25.950000000000003,0)" xlink:href="#P"/><use transform="matrix(0.05,0,0,0.05,40.9,0)" xlink:href="#Q"/><use transform="matrix(0.05,0,0,0.05,44.85,0)" xlink:href="#R"/><use transform="matrix(0.05,0,0,0.05,53.85,0)" xlink:href="#S"/></g><path d="M87 75C49 33 22-17 22-94c0-76 28-126 65-167h31c-38 41-64 92-64 168S80 34 118 75H87" id="aQ"/><g id="B"><use transform="matrix(0.05,0,0,0.05,0,0)" xlink:href="#aQ"/><use transform="matrix(0.05,0,0,0.05,5.95,0)" xlink:href="#ax"/><use transform="matrix(0.05,0,0,0.05,15.949999999999998,0)" xlink:href="#aw"/><use transform="matrix(0.05,0,0,0.05,25.950000000000003,0)" xlink:href="#ap"/></g><path d="M177-190C167-65 218 103 67 71c-23-6-38-20-44-43l32-5c15 47 100 32 89-28v-30C133-14 115 1 83 1 29 1 15-40 15-95c0-56 16-97 71-98 29-1 48 16 59 35 1-10 0-23 2-32h30zM94-22c36 0 50-32 50-73 0-42-14-75-50-75-39 0-46 34-46 75s6 73 46 73" id="aR"/><g id="C"><use transform="matrix(0.05,0,0,0.05,0,0)" xlink:href="#aR"/><use transform="matrix(0.05,0,0,0.05,10,0)" xlink:href="#S"/><use transform="matrix(0.05,0,0,0.05,20,0)" xlink:href="#af"/></g><path d="M33-261c38 41 65 92 65 168S71 34 33 75H2C39 34 66-17 66-93S39-220 2-261h31" id="aS"/><path d="M33 0v-38h34V0H33" id="aT"/><g id="D"><use transform="matrix(0.05,0,0,0.05,0,0)" xlink:href="#N"/><use transform="matrix(0.05,0,0,0.05,5.95,0)" xlink:href="#S"/><use transform="matrix(0.05,0,0,0.05,15.949999999999998,0)" xlink:href="#R"/><use transform="matrix(0.05,0,0,0.05,24.95,0)" xlink:href="#ad"/><use transform="matrix(0.05,0,0,0.05,34.95,0)" xlink:href="#O"/><use transform="matrix(0.05,0,0,0.05,44.95,0)" xlink:href="#aw"/><use transform="matrix(0.05,0,0,0.05,54.95,0)" xlink:href="#R"/><use transform="matrix(0.05,0,0,0.05,63.95,0)" xlink:href="#S"/><use transform="matrix(0.05,0,0,0.05,73.95,0)" xlink:href="#aS"/><use transform="matrix(0.05,0,0,0.05,79.9,0)" xlink:href="#aT"/></g><path d="M650-1214c-281 0-336 244-336 533 0 295 60 546 347 546 188 0 263-142 322-282l159 65C1058-155 935 20 659 20c-401 0-546-295-546-701 0-407 135-689 536-689 264 0 391 146 466 335l-168 65c-47-129-127-244-297-244" id="aU"/><g id="E"><use transform="matrix(0.007595486111111112,0,0,0.007595486111111112,0,0)" xlink:href="#aU"/><use transform="matrix(0.007595486111111112,0,0,0.007595486111111112,9.334852430555557,0)" xlink:href="#ag"/><use transform="matrix(0.007595486111111112,0,0,0.007595486111111112,18.669704861111114,0)" xlink:href="#aI"/><use transform="matrix(0.007595486111111112,0,0,0.007595486111111112,28.00455729166667,0)" xlink:href="#aH"/><use transform="matrix(0.007595486111111112,0,0,0.007595486111111112,37.33940972222223,0)" xlink:href="#ab"/><use transform="matrix(0.007595486111111112,0,0,0.007595486111111112,46.674262152777786,0)" xlink:href="#aa"/><use transform="matrix(0.007595486111111112,0,0,0.007595486111111112,56.00911458333334,0)" xlink:href="#V"/><use transform="matrix(0.007595486111111112,0,0,0.007595486111111112,65.3439670138889,0)" xlink:href="#aa"/><use transform="matrix(0.007595486111111112,0,0,0.007595486111111112,74.67881944444446,0)" xlink:href="#aj"/></g><g id="F"><use transform="matrix(0.05,0,0,0.05,0,0)" xlink:href="#av"/><use transform="matrix(0.05,0,0,0.05,9,0)" xlink:href="#O"/><use transform="matrix(0.05,0,0,0.05,19,0)" xlink:href="#aw"/><use transform="matrix(0.05,0,0,0.05,29,0)" xlink:href="#af"/><use transform="matrix(0.05,0,0,0.05,34,0)" xlink:href="#ax"/><use transform="matrix(0.05,0,0,0.05,44,0)" xlink:href="#Q"/><use transform="matrix(0.05,0,0,0.05,47.95,0)" xlink:href="#aw"/><use transform="matrix(0.05,0,0,0.05,57.95,0)" xlink:href="#R"/></g><use transform="matrix(0.05,0,0,0.05,0,0)" xlink:href="#ax" id="G"/><path d="M68-38c1 34 0 65-14 84H32c9-13 17-26 17-46H33v-38h35" id="aV"/><g id="H"><use transform="matrix(0.05,0,0,0.05,0,0)" xlink:href="#N"/><use transform="matrix(0.05,0,0,0.05,5.95,0)" xlink:href="#S"/><use transform="matrix(0.05,0,0,0.05,15.949999999999998,0)" xlink:href="#R"/><use transform="matrix(0.05,0,0,0.05,24.95,0)" xlink:href="#O"/><use transform="matrix(0.05,0,0,0.05,34.95,0)" xlink:href="#ae"/><use transform="matrix(0.05,0,0,0.05,38.900000000000006,0)" xlink:href="#aP"/><use transform="matrix(0.05,0,0,0.05,47.900000000000006,0)" xlink:href="#S"/><use transform="matrix(0.05,0,0,0.05,57.900000000000006,0)" xlink:href="#aV"/></g><g id="I"><use transform="matrix(0.05,0,0,0.05,0,0)" xlink:href="#O"/><use transform="matrix(0.05,0,0,0.05,10,0)" xlink:href="#N"/></g><g id="J"><use transform="matrix(0.05,0,0,0.05,0,0)" xlink:href="#N"/><use transform="matrix(0.05,0,0,0.05,5.95,0)" xlink:href="#S"/><use transform="matrix(0.05,0,0,0.05,15.949999999999998,0)" xlink:href="#aL"/><use transform="matrix(0.05,0,0,0.05,19.9,0)" xlink:href="#S"/><use transform="matrix(0.05,0,0,0.05,29.899999999999995,0)" xlink:href="#av"/><use transform="matrix(0.05,0,0,0.05,38.9,0)" xlink:href="#af"/></g><g id="K"><use transform="matrix(0.05,0,0,0.05,0,0)" xlink:href="#af"/><use transform="matrix(0.05,0,0,0.05,5,0)" xlink:href="#aG"/><use transform="matrix(0.05,0,0,0.05,15,0)" xlink:href="#S"/></g><g id="L"><use transform="matrix(0.05,0,0,0.05,0,0)" xlink:href="#ad"/><use transform="matrix(0.05,0,0,0.05,10,0)" xlink:href="#N"/><use transform="matrix(0.05,0,0,0.05,15.949999999999998,0)" xlink:href="#O"/><use transform="matrix(0.05,0,0,0.05,25.950000000000003,0)" xlink:href="#P"/><use transform="matrix(0.05,0,0,0.05,40.9,0)" xlink:href="#Q"/><use transform="matrix(0.05,0,0,0.05,44.85,0)" xlink:href="#R"/><use transform="matrix(0.05,0,0,0.05,53.85,0)" xlink:href="#S"/><use transform="matrix(0.05,0,0,0.05,63.85,0)" xlink:href="#aT"/></g></defs></g></svg>